<svg xmlns:xlink="http://www.w3.org/1999/xlink" xmlns="http://www.w3.org/2000/svg" xml:space="preserve" style="enable-background:new 0 0 300 300;" viewBox="0 0 300 300" y="0px" x="0px" id="Layer_1" version="1.1" width="300"  height="300" >
<style type="text/css">
	.st0{fill:#fff;}
</style>
<g transform="translate(-2.5 -5.3)" id="Group_46">
	<g transform="translate(2.5 5.3)" id="Group_45">
		<path d="M270.3,180.7c-1.5-5.6-5.2-10.4-10.4-13.1c-5.1-2.8-11.1-3.5-16.7-1.8L190,182.8    c-1.7-1.7-3.7-3-5.8-4L144,162.8c-11.2-4.5-23.5-5.3-35.1-2.3l-27.8,7.3v-4.3c0-3.6-2.9-6.5-6.5-6.6c0,0-0.1,0-0.1,0H37.6    c-3.6,0-6.5,2.9-6.6,6.5c0,0,0,0.1,0,0.1v81.9c0,3.6,2.9,6.5,6.5,6.6c0,0,0.1,0,0.1,0h36.9c3.6,0,6.5-2.9,6.6-6.5c0,0,0-0.1,0-0.1    v-5.3l84.9,14.7c2.7,0.5,5.4,0.8,8.1,0.8c9.8,0,19.3-3.1,27.3-8.8l60.9-43.2C269.4,198.3,272.6,189.3,270.3,180.7z M68,239.1H44    v-69h24V239.1z M254.7,193.1l-61.1,43.2c-7.4,5.4-16.7,7.5-25.8,5.8l-86.9-14.9v-46l31.3-8.1c9.1-2.3,18.6-1.7,27.3,1.8l39.9,15.9    c1,0.4,1.9,1.2,2.3,2.3c0.5,1,0.5,2.2,0,3.3c-0.8,1.7-2.6,2.8-4.5,2.5l-47.2-7.6c-3.3-0.7-6.6,1.5-7.3,4.9c0,0.1-0.1,0.3-0.1,0.4    c-0.6,3.5,1.7,6.7,5.2,7.3c0,0,0.1,0,0.1,0l47.2,7.6c0.9,0.2,1.8,0.3,2.8,0.3c7,0,13.2-4.2,15.9-10.6c0.9-2.2,1.3-4.5,1.3-6.8    l52.3-16.4c2.2-0.8,4.6-0.5,6.6,0.8c2,1,3.5,2.9,4,5.1C258.8,187.3,257.5,190.9,254.7,193.1z" class="st0" id="Path_201"/>
		<path d="M199.6,116.8h-9.4c-4,0-7.3-3.3-7.3-7.3h-11.4c-0.1,10,7.7,18.2,17.7,18.7v9.6h11.4v-9.6    c9.9-0.6,17.7-8.8,17.7-18.7c-0.1-10.4-8.5-18.9-18.9-18.9H190c-4,0-7.3-3.3-7.3-7.3c0-4,3.3-7.3,7.3-7.3c0,0,0,0,0,0h9.3    c4,0,7.3,3.3,7.3,7.3H218c0.1-10-7.7-18.2-17.7-18.7v-9.6H189v9.6c-9.9,0.6-17.7,8.8-17.7,18.7c0.1,10.4,8.5,18.9,18.9,19h9.4    c4,0,7.3,3.3,7.3,7.3S203.6,116.8,199.6,116.8L199.6,116.8z" class="st0" id="Path_202"/>
		<path d="M195,162.3c36.6,0,66.2-29.6,66.2-66.2S231.6,29.9,195,29.9c-36.6,0-66.2,29.6-66.2,66.2    c0,0,0,0,0,0C128.9,132.6,158.5,162.3,195,162.3z M195,43c29.4,0,53.3,23.9,53.3,53.3c0,29.4-23.9,53.3-53.3,53.3    c-29.4,0-53.3-23.9-53.3-53.3C141.7,66.9,165.6,43,195,43z" class="st0" id="Path_203"/>
	</g>
</g>
</svg>