<?xml version="1.0" encoding="UTF-8"?>
<!DOCTYPE svg PUBLIC "-//W3C//DTD SVG 1.1//EN" "http://www.w3.org/Graphics/SVG/1.1/DTD/svg11.dtd">
<!-- Creator: CorelDRAW -->
<svg xmlns="http://www.w3.org/2000/svg" xml:space="preserve" width="6.82666in" height="6.82666in" style="shape-rendering:geometricPrecision; text-rendering:geometricPrecision; image-rendering:optimizeQuality; fill-rule:evenodd; clip-rule:evenodd"
viewBox="0 0 6.82666 6.82666"
 xmlns:xlink="http://www.w3.org/1999/xlink">
 <defs>
  <style type="text/css">
   <![CDATA[
    .fil1 {fill:none}
    .fil0 {fill:#fff;fill-rule:nonzero}
   ]]>
  </style>
 </defs>
 <g id="Layer_x0020_1">
  <metadata id="CorelCorpID_0Corel-Layer"/>
  <path class="fil0" d="M3.36167 5.95958c-0.902354,-0.504039 -1.44083,-1.17015 -1.77527,-1.95885 -0.331362,-0.781445 -0.459685,-1.67766 -0.543937,-2.65413l-0.0149094 -0.172819 0.160744 0.0649016c0.80863,0.326488 1.16296,0.143776 1.77479,-0.171724 0.120386,-0.0620787 0.250469,-0.129161 0.404409,-0.202799l0.0458346 -0.0219252 0.0458346 0.0219252c0.153937,0.0736378 0.28402,0.14072 0.404402,0.202799 0.611827,0.3155 0.966165,0.498213 1.7748,0.171724l0.160744 -0.0649016 -0.0149094 0.172819c-0.084248,0.976476 -0.212575,1.87269 -0.543933,2.65413 -0.334437,0.788697 -0.872913,1.45481 -1.77527,1.95885l-0.0516654 0.0288583 -0.0516654 -0.0288583zm-1.57943 -2.04135c0.310142,0.731409 0.806319,1.35176 1.6311,1.82618 0.82478,-0.474417 1.32095,-1.09477 1.6311,-1.82618 0.300783,-0.709343 0.429118,-1.52809 0.512142,-2.42111 -0.78648,0.276717 -1.16502,0.0815512 -1.79051,-0.240992 -0.110512,-0.0569882 -0.228953,-0.118067 -0.352732,-0.178197 -0.12378,0.0601299 -0.242224,0.121209 -0.35274,0.178197 -0.625484,0.322543 -1.00402,0.517713 -1.7905,0.240992 0.0830276,0.893028 0.211358,1.71177 0.512146,2.42111z"/>
  <path class="fil0" d="M3.34533 4.69334l0 -0.254165c-0.127323,-0.0159173 -0.230535,-0.044374 -0.310114,-0.0853661 -0.0795748,-0.0409961 -0.148543,-0.107551 -0.206421,-0.198705 -0.057874,-0.0916378 -0.0916339,-0.203047 -0.100795,-0.334713l0.255614 -0.0482283c0.0197717,0.136488 0.0545,0.236807 0.104657,0.300949 0.071378,0.0906732 0.157228,0.140831 0.257059,0.150961l0 -0.809287c-0.104657,-0.0197756 -0.211244,-0.0602874 -0.320724,-0.121539 -0.0810236,-0.0453346 -0.14324,-0.108031 -0.187126,-0.188094 -0.0438898,-0.0800591 -0.0655945,-0.170732 -0.0655945,-0.272496 0,-0.180858 0.0641457,-0.327476 0.191953,-0.439366 0.0858504,-0.0757205 0.213173,-0.121539 0.381492,-0.138417l0 -0.121539 0.149996 0 0 0.121539c0.147579,0.0139843 0.26526,0.0573898 0.351591,0.129736 0.111409,0.0921181 0.177965,0.218961 0.200634,0.380047l-0.26285 0.0395472c-0.0149488,-0.0998346 -0.0462992,-0.17652 -0.0940472,-0.229571 -0.0472638,-0.0530551 -0.112374,-0.0882598 -0.195327,-0.105142l0 0.733087c0.127807,0.032311 0.212689,0.0573898 0.254165,0.0752362 0.0790984,0.0347244 0.143724,0.0771654 0.193402,0.126843 0.0501575,0.0501575 0.0887402,0.10948 0.115268,0.177969 0.0270079,0.0689646 0.0405118,0.14324 0.0405118,0.223299 0,0.17652 -0.0564291,0.323138 -0.168319,0.440815 -0.111894,0.118161 -0.257063,0.180862 -0.435028,0.189543l0 0.257059 -0.149996 0zm0 -2.22674c-0.0988661,0.0149528 -0.177,0.0545 -0.233909,0.118646 -0.0569094,0.0641457 -0.0853661,0.139862 -0.0853661,0.227642 0,0.0863307 0.0241142,0.159157 0.0728268,0.217512 0.0487126,0.0583583 0.130701,0.105142 0.246449,0.139866l0 -0.703665zm0.149996 1.75748c0.0988701,-0.0120591 0.180378,-0.0549843 0.245004,-0.128291 0.064626,-0.0733071 0.0969409,-0.164461 0.0969409,-0.272976 0,-0.0921181 -0.0231496,-0.166394 -0.0684843,-0.222339 -0.0458189,-0.0559449 -0.136972,-0.106102 -0.273461,-0.150476l0 0.774083z"/>
 </g>
 <rect class="fil1" width="6.82666" height="6.82666"/>
</svg>
